<?xml version="1.0" encoding="UTF-8"?>
<!-- Generator: Adobe Illustrator 25.2.1, SVG Export Plug-In . SVG Version: 6.00 Build 0)  -->
<svg xmlns="http://www.w3.org/2000/svg" xmlns:xlink="http://www.w3.org/1999/xlink" version="1.1" id="Calque_1" x="0px" y="0px" viewBox="0 0 300 200" style="enable-background:new 0 0 300 200;" xml:space="preserve">
<style type="text/css">
	.st0{fill:#008791;}
	.st1{fill:#00AF52;}
</style>
<g id="Embraco_Nidec_1_">
	<g>
		<g>
			<path class="st0" d="M289.32,59.69c-3.32-3.91-8.19-5.87-14.62-5.87c-2.91,0-5.57,0.5-7.97,1.5c-2.41,1-4.47,2.44-6.2,4.33     c-1.07,1.17-1.96,2.49-2.73,4c-0.47,0.92-1.61,3.71-2.07,7.91c-0.25,2.33-0.33,5.21-1.15,8.67c-1.52,6.44-6.57,8.63-10.17,9.36     c-1.28,0.24-2.56,0.36-3.84,0.36c-2.11,0-3.83-0.35-5.18-1.05c-1.35-0.7-2.42-1.68-3.2-2.92c-0.79-1.24-1.34-2.68-1.67-4.33     c-0.32-1.64-0.48-3.41-0.48-5.3c0-1.83,0.19-3.61,0.57-5.3c0.38-1.7,0.98-3.2,1.82-4.49c0.84-1.3,1.92-2.33,3.24-3.12     c1.32-0.78,2.9-1.18,4.73-1.18c1.57,0,3.05,0.18,4.47,0.53c1.4,0.35,2.75,0.77,4.04,1.25c0.65,0.27,1.09,0.35,1.34,0.24     c0.24-0.11,0.47-0.38,0.69-0.81l2.03-4.78c0.27-0.53,0.35-0.94,0.24-1.21c-0.12-0.27-0.4-0.54-0.89-0.81     c-1.84-0.97-3.8-1.69-5.87-2.15c-2.08-0.45-4.22-0.68-6.44-0.68c-3.02,0-5.74,0.53-8.14,1.58c-2.4,1.05-4.45,2.57-6.15,4.54     c-1.7,1.97-3.01,4.34-3.93,7.13c-0.92,2.78-1.38,5.87-1.38,9.27c0,7.24,1.61,12.69,4.82,16.36c3.21,3.67,7.84,5.5,13.89,5.5     c0.39,0,0.8-0.01,1.19-0.03v0.01c3.66-0.01,6.78-0.53,9.42-1.43c0.43-0.14,0.84-0.3,1.25-0.46c0.1-0.04,0.19-0.08,0.28-0.11     c0.4-0.17,0.79-0.35,1.17-0.54c0.12-0.06,0.24-0.12,0.35-0.18c0.22-0.11,0.45-0.21,0.67-0.33c0.11-0.06,0.19-0.12,0.27-0.18     c3.47-2.02,5.62-4.88,7.44-7.5c3.22-4.67,3.44-12.8,3.44-12.8l0.01,0.01c0.06-1.56,0.26-3.04,0.58-4.43     c0.4-1.74,1.04-3.23,1.9-4.48c0.86-1.25,1.94-2.24,3.24-2.97c1.29-0.73,2.8-1.1,4.53-1.1c1.95,0,3.55,0.39,4.82,1.14     c1.27,0.76,2.27,1.81,3,3.14c0.73,1.34,1.25,2.87,1.54,4.6c0.29,1.74,0.44,3.59,0.44,5.54c0,1.9-0.17,3.7-0.52,5.42     c-0.35,1.71-0.92,3.22-1.7,4.52c-0.79,1.3-1.82,2.35-3.12,3.13s-2.89,1.18-4.78,1.18c0,0-4.36,0.18-7.81-2.33v0.01     c-1.03-0.66-1.53,0.32-1.53,0.32l-0.01-0.01c-0.77,1.41-1.7,2.8-2.79,4.11l0.02,0c0,0-0.71,0.72-0.03,1.42     c1.54,1.7,5.04,4.32,12.05,4.32c6.59,0,11.54-1.93,14.86-5.79c3.32-3.86,4.98-9.37,4.98-16.56     C294.3,68.99,292.64,63.61,289.32,59.69 M25.07,53.19c-2.81,0-5.4,0.5-7.78,1.5c-2.37,1-4.42,2.46-6.11,4.38     c-1.7,1.92-3.04,4.27-4.01,7.05C6.19,68.9,5.7,72.07,5.7,75.65c0,7.61,1.73,13.8,5.19,17.31c3.46,3.51,8.45,5.26,14.99,5.26     c2.21,0,4.53-0.24,6.97-0.73c2.43-0.49,4.67-1.35,6.72-2.59c0.76-0.37,0.95-1,0.57-1.86l-2.19-4.62     c-0.32-0.69-0.91-0.86-1.78-0.48c-1.24,0.59-2.71,1.11-4.38,1.54c-1.68,0.43-3.38,0.64-5.1,0.64c-1.57,0-3.03-0.19-4.38-0.57     c-1.35-0.38-2.54-1.02-3.56-1.9c-1.03-0.9-1.84-2.05-2.44-3.49c-0.6-1.43-0.91-3.82-0.97-5.93h18.89c0,0,2.62-0.02,4.1-0.45     c4.42-1.28,4.89-5.37,4.89-7.84c0-5.11-1.65-9.1-4.34-11.97C35.89,54.79,31.28,53.19,25.07,53.19 M15.67,71.43     c0.05-1.35,0.32-2.65,0.82-3.89c0.48-1.25,1.13-2.35,1.94-3.32c0.8-0.97,1.78-1.74,2.92-2.31c1.13-0.57,2.43-0.85,3.89-0.85     c1.83,0,3.33,0.27,4.49,0.81c1.17,0.54,2.09,1.28,2.76,2.23c0.67,0.95,1.14,2.04,1.42,3.28c0.26,1.24,0.4,2.59,0.4,4.05H15.67z      M104.96,59.32c-1.48-1.73-3.42-3.08-5.79-4.05c-2.38-0.97-5.24-1.46-8.59-1.46c-7.83,0-11.59,2.51-13.66,3.97     c-1.76-1.36-3.77-2.36-6.05-3c-2.32-0.65-4.58-0.97-7.88-0.97c-0.64,0-1.43,0.03-2.35,0.08c-0.92,0.05-1.85,0.11-2.8,0.16     c-0.95,0.05-1.82,0.14-2.63,0.24c-0.82,0.11-2.78,0.3-4.58,1.22c-0.74,0.37-1.29,0.85-1.67,1.42c-0.37,0.56-0.64,1.23-0.77,1.98     C48.07,59.67,48,60.54,48,61.51v34.44c0,0.59,0.12,0.97,0.37,1.13c0.24,0.17,0.64,0.24,1.17,0.24h6.32c0.6,0,1-0.08,1.22-0.24     c0.22-0.17,0.33-0.55,0.33-1.13V62.4c0.38-0.05,0.84-0.12,1.41-0.2c0.57-0.08,1.14-0.14,1.74-0.16c0.59-0.03,1.16-0.06,1.7-0.09     c0.54-0.03,0.97-0.04,1.3-0.04c2.27,0,3.57,0.29,5,0.89c1.44,0.59,2.54,1.43,3.33,2.51c0.78,1.08,1.32,2.38,1.61,3.89     c0.3,1.52,0.44,3.22,0.44,5.11v21.64c0,0.59,0.12,0.97,0.36,1.13c0.24,0.17,0.63,0.24,1.17,0.24h6.26c0.59,0,1.01-0.08,1.24-0.24     c0.24-0.17,0.37-0.55,0.37-1.13V74.48c0-2.05-0.11-3.94-0.33-5.67c-0.19-1.58-0.58-3.06-1.13-4.46c0.92-0.74,3.15-2.35,7.43-2.35     c3.9,0,6.64,1.05,8.22,3.16c1.57,2.1,2.36,5.34,2.36,9.72v21.07c0,0.59,0.12,0.97,0.37,1.13c0.24,0.17,0.63,0.24,1.17,0.24h6.24     c0.6,0,1.01-0.08,1.25-0.24c0.24-0.17,0.37-0.55,0.37-1.13V73.67c0-2.92-0.36-5.61-1.05-8.07     C107.55,63.14,106.45,61.05,104.96,59.32 M148.59,59.97c-1.48-1.94-3.4-3.45-5.75-4.54c-2.35-1.08-5.15-1.62-8.39-1.62     c-1.46,0-3.12,0.12-4.99,0.37c-1.86,0.24-3.57,0.61-5.15,1.09l-0.08-15.72c0-0.65-0.11-1.05-0.32-1.21     c-0.22-0.16-0.62-0.24-1.21-0.24h-6.27c-0.59,0-1,0.1-1.25,0.29c-0.23,0.19-0.36,0.58-0.36,1.17v54.83     c0,2.54,2.18,2.85,2.18,2.85c25.81,3.42,29.47-3.45,31.13-5.45c1.67-2.02,2.91-4.41,3.69-7.17c0.78-2.75,1.17-5.75,1.17-8.99     c0-3.14-0.36-6.04-1.09-8.72C151.19,64.23,150.08,61.92,148.59,59.97 M142.47,82.58c-0.53,1.78-1.3,3.24-2.28,4.38     c-0.98,1.13-2.16,1.95-3.54,2.47c-1.38,0.51-2.92,0.77-4.6,0.77c-1.09,0-6.51,0.24-7.81-0.19V63.21     c1.74-0.54,3.39-0.89,4.96-1.05c1.58-0.16,2.8-0.24,3.66-0.24c3.25,0,5.81,1.16,7.65,3.48c1.85,2.32,2.77,5.86,2.77,10.62     C143.28,78.61,143.02,80.8,142.47,82.58 M180.52,61.76c1.52,0,1.52-1.08,1.52-1.08v-6.15c0-1.34-1.47-1.33-1.5-1.33     c-6.95,0.12-11.5,0.42-14.47,0.73c-1.98,0.15-3.35,0.42-4.21,0.66c-1.07,0.26-1.26,0.44-1.26,0.44c-0.79,0.35-1.37,0.8-1.74,1.33     c-0.73,1.05-1.09,2.66-1.09,4.82v34.77c0,0.59,0.12,0.97,0.36,1.13c0.24,0.17,0.63,0.24,1.17,0.24h6.24     c0.59,0,1.01-0.08,1.25-0.24c0.25-0.17,0.37-0.55,0.37-1.13V62.23C167.17,62.23,168.04,61.87,180.52,61.76 M208.76,55.53     c-2.81-1.4-7.34-2.15-20.5-2.34c-1.72-0.02-1.65,1.34-1.65,1.34v6.12c0,0,0.06,1.09,1.18,1.09c14.22,0.09,14.29,0.45,14.29,0.45     c1.08,0.35,1.93,0.85,2.55,1.5c0.62,0.65,1.04,1.4,1.25,2.27c0.21,0.87,0.33,1.81,0.33,2.84v1.38h-9.08     c-3.24,0-5.98,0.41-8.22,1.22c-2.24,0.8-4.07,1.87-5.47,3.19c-1.41,1.33-2.43,2.87-3.04,4.62c-0.62,1.76-0.93,3.59-0.93,5.47     c0,1.84,0.27,3.58,0.81,5.23c0.54,1.64,1.5,3.07,2.88,4.29c1.37,1.22,3.23,2.19,5.59,2.92c2.35,0.73,5.3,1.09,8.88,1.09     c1.29,0,2.66-0.04,4.08-0.12c1.43-0.08,2.88-0.22,4.34-0.44c1.46-0.22,2.87-0.51,4.25-0.89c1.38-0.38,2.66-0.84,3.85-1.38     c1.02-0.49,1.54-1.38,1.54-2.67V68.4c0-4.75-1.31-8.37-3.93-10.86C210.93,56.74,209.93,56.07,208.76,55.53 M206.14,89.3     c-0.7,0.28-1.47,0.49-2.31,0.65c-0.84,0.16-1.63,0.3-2.39,0.41c-0.76,0.12-1.47,0.18-2.15,0.21c-0.68,0.03-1.2,0.04-1.58,0.04     c-2.59,0-4.68-0.46-6.24-1.38c-1.57-0.92-2.35-2.55-2.35-4.87c0-1.62,0.31-2.89,0.93-3.81c0.62-0.92,1.4-1.62,2.35-2.1     c0.94-0.49,1.94-0.79,3-0.89c1.06-0.12,2.04-0.16,2.96-0.16h7.78V89.3z"></path>
			<polygon class="st1" points="61.85,161.91 74.57,122.34 87.04,122.34 102.43,147.45 110.53,122.34 112.27,122.34 99.56,161.91      87.1,161.91 71.7,136.79 63.62,161.91    "></polygon>
			<polygon class="st1" points="103.2,161.91 118.56,161.82 126.48,136.73 111.21,136.73    "></polygon>
			<path class="st1" d="M115.89,133.12h8.35c2.18,0,4.52-2.17,4.83-4.44c0.45-1.36,0.31-0.71,0.9-3.04c0.52-2.07-0.8-3.3-3.13-3.3     h-6.39c-4.07,0-5.37,2.47-5.68,3.22c-0.31,0.75-1.2,3.63-1.2,3.63S112.22,133.12,115.89,133.12"></path>
			<path class="st1" d="M153.63,122.34l-5.05,15.75c0,0,0.06-1.35-1.12-1.35h-13.21c-2.74,0-4.71,1.73-5.56,4.35     c-0.37,1.14-4.84,15.68-5.29,17.02c-0.61,1.85-0.17,3.81,2.26,3.81h30.55l12.62-39.58H153.63z M147.79,140.33     c-0.8,2.99-4.57,15.01-5.63,17.91c-1.06,3.12-4.31,2.23-3.55-0.06c0.37-1.06,4.86-15.58,5.74-17.95     C145.21,137.85,148.47,137.77,147.79,140.33"></path>
			<path class="st1" d="M197.97,136.73h-26.16c-3.41,0-4.67,2.65-5.37,4.41c-0.47,1.45-4.48,14.17-5.24,16.73     c-1.07,3.19,0.51,4.04,3.34,4.04h29.42l0.57-1.8h-15.05c-4.07,0-2.49-4.01-2.49-4.01l1.86-5.87h18.87c0,0,2.84-8.78,3.18-9.97     C201.25,139.06,201.33,136.73,197.97,136.73 M185.57,140.22c-0.81,3.05-2.62,8.22-2.62,8.22h-3.49c0,0,1.99-6.48,2.55-8.22     C182.58,138.47,186.38,137.17,185.57,140.22"></path>
			<path class="st1" d="M232.19,160.14h-14.99c-2.99,0-3.03-2.4-2.49-4.01c0.54-1.61,4.51-14.23,4.51-14.23s1.51-3.44,5.3-3.44     c2.56,0,14.74-0.03,14.74-0.03l0.5-1.64c0,0-27.63-0.03-29.95-0.03c-3.54,0-4.93,2.4-5.43,3.79c-0.5,1.39-5.49,17.3-5.68,17.83     c-0.19,0.54-0.67,3.35,2.2,3.35c2.87,0,30.81,0.19,30.81,0.19L232.19,160.14z"></path>
		</g>
	</g>
</g>
</svg>
